<svg width="400" height="100" viewBox="0 0 400 100" fill="none" xmlns="http://www.w3.org/2000/svg">
    <polygon points="50,10 90,40 90,70 50,90 10,70 10,40" fill="#0ea5e9" stroke="#0c4a6e"
        stroke-width="2" transform="translate(0, 0)" />
    <polygon points="50,10 90,40 90,70 50,90 10,70 10,40" fill="#14b8a6" stroke="#134e4a"
        stroke-width="2" transform="translate(80, 0)" />
    <polygon points="50,10 90,40 90,70 50,90 10,70 10,40" fill="#f43f5e" stroke="#9f1239"
        stroke-width="2" transform="translate(160, 0)" />
    <polygon points="50,10 90,40 90,70 50,90 10,70 10,40" fill="#eab308" stroke="#854d0e"
        stroke-width="2" transform="translate(240, 0)" />
    <polygon points="50,10 90,40 90,70 50,90 10,70 10,40" fill="#a855f7" stroke="#6b21a8"
        stroke-width="2" transform="translate(320, 0)" />
</svg>